<?xml version="1.0" encoding="UTF-8"?>
<svg version="1.1" xmlns="http://www.w3.org/2000/svg" width="601" height="300">
<path d="M0 0 C0.96164063 0.45761719 1.92328125 0.91523437 2.9140625 1.38671875 C11.36738275 5.81411735 23.83372683 14.5011805 27 24 C23.06516039 26.31704962 19.12668993 28.62785531 15.1875 30.9375 C14.06794922 31.59685547 12.94839844 32.25621094 11.79492188 32.93554688 C10.72177734 33.56396484 9.64863281 34.19238281 8.54296875 34.83984375 C7.55321045 35.42113037 6.56345215 36.00241699 5.54370117 36.60131836 C3 38 3 38 0 39 C-0.53367187 38.48050781 -1.06734375 37.96101563 -1.6171875 37.42578125 C-12.30808197 27.419252 -23.24066258 23.30472754 -37.9296875 23.6953125 C-49.35184756 24.34024081 -58.96754542 29.75027481 -66.84375 37.91015625 C-75.56477261 48.74469199 -77.81727733 60.41833674 -77 74 C-75.10354562 84.78141782 -69.26950497 95.23359402 -60.5234375 101.8828125 C-49.44476692 109.34141044 -39.14408272 111.13846386 -26 110 C-15.58645391 107.95621993 -7.30303223 102.56859704 0 95 C3.66942861 96.37061399 6.93859497 98.03354788 10.30078125 100.0390625 C11.27724609 100.61914062 12.25371094 101.19921875 13.25976562 101.796875 C14.26716797 102.40015625 15.27457031 103.0034375 16.3125 103.625 C17.33923828 104.23601562 18.36597656 104.84703125 19.42382812 105.4765625 C21.95113875 106.98119394 24.47643399 108.4890994 27 110 C17.9447165 125.6004024 1.92902459 134.93155264 -15 140 C-36.12583956 144.75269182 -57.19931027 141.2195329 -75.55859375 129.7265625 C-80.07081089 126.53552254 -84.06422851 122.86917637 -88 119 C-88.62777344 118.38511719 -89.25554687 117.77023438 -89.90234375 117.13671875 C-105.01517347 101.1328832 -108.52208453 81.70419941 -108.2734375 60.48828125 C-107.78804072 43.67961539 -100.1683804 28.38045269 -89 16 C-88.39671875 15.30390625 -87.7934375 14.6078125 -87.171875 13.890625 C-65.29803021 -9.82135801 -28.06785049 -13.95702702 0 0 Z " fill="#962A75" transform="translate(145,83)"/>
<path d="M0 0 C0 30.36 0 60.72 0 92 C-7.25606712 88.04214521 -14.49347977 84.06737369 -21.6875 80 C-22.67153809 79.4438501 -23.65557617 78.8877002 -24.66943359 78.31469727 C-32.85444981 73.67539846 -40.98559191 68.94710503 -49.10424805 64.19287109 C-59.02634284 58.38613029 -69.00586286 52.68164173 -79 47 C-79 46.34 -79 45.68 -79 45 C-77.99755249 44.4423999 -77.99755249 44.4423999 -76.97485352 43.87353516 C-60.20947397 34.54617554 -60.20947397 34.54617554 -43.62109375 24.90966797 C-35.87673664 20.31565266 -28.06581807 15.83687092 -20.25805664 11.35180664 C-14.41031323 7.98755374 -8.59827277 4.57894111 -2.84350586 1.05761719 C-1 0 -1 0 0 0 Z " fill="#E82D64" transform="translate(202,104)"/>
<path d="M0 0 C3.59053307 1.96463131 6.28311164 4.07866173 9.3125 6.8125 C9.73660156 6.40257812 10.16070312 5.99265625 10.59765625 5.5703125 C16.4551894 0.18910622 22.08183058 -1.72637565 30.046875 -1.49609375 C36.7259224 -0.58636143 41.03042654 3.04778342 45.18359375 8.12890625 C47.10001371 10.98695817 47.43656357 13.48434955 47.42602539 16.82495117 C47.42591209 18.0258564 47.42591209 18.0258564 47.42579651 19.25102234 C47.42063522 20.11048965 47.41547394 20.96995697 47.41015625 21.85546875 C47.4087413 22.7390657 47.40732635 23.62266266 47.40586853 24.53303528 C47.40027069 27.35539128 47.38771861 30.17766797 47.375 33 C47.36998472 34.91341031 47.36542186 36.82682187 47.36132812 38.74023438 C47.35030197 43.43102014 47.33303883 48.12174663 47.3125 52.8125 C43.6825 52.8125 40.0525 52.8125 36.3125 52.8125 C36.29791748 51.84948975 36.28333496 50.88647949 36.26831055 49.89428711 C36.21000077 46.29512832 36.13277261 42.69657395 36.05004883 39.09790039 C36.01695223 37.54526638 35.98887349 35.99251647 35.96606445 34.43969727 C35.93223476 32.1975806 35.87991013 29.95651153 35.82421875 27.71484375 C35.81782883 27.02913803 35.8114389 26.34343231 35.80485535 25.63694763 C35.65491833 20.63638976 34.54843127 17.20096068 32.3125 12.8125 C29.85002241 10.78975055 28.13744809 10.79304979 24.9375 10.4375 C20.61953393 10.88418615 18.61923452 12.0440711 15.3125 14.8125 C11.98692862 19.56331625 12.1759914 25.92091073 11.99609375 31.5234375 C11.93325195 33.38935547 11.93325195 33.38935547 11.86914062 35.29296875 C11.82982422 36.57816406 11.79050781 37.86335938 11.75 39.1875 C11.68522461 41.15009766 11.68522461 41.15009766 11.61914062 43.15234375 C11.51337571 46.37229797 11.41128421 49.59232531 11.3125 52.8125 C7.6825 52.8125 4.0525 52.8125 0.3125 52.8125 C0.29791748 51.84948975 0.28333496 50.88647949 0.26831055 49.89428711 C0.21000077 46.29512832 0.13277261 42.69657395 0.05004883 39.09790039 C0.01695223 37.54526638 -0.01112651 35.99251647 -0.03393555 34.43969727 C-0.06776524 32.1975806 -0.12008987 29.95651153 -0.17578125 27.71484375 C-0.18217117 27.02913803 -0.1885611 26.34343231 -0.19514465 25.63694763 C-0.34508167 20.63638976 -1.45156873 17.20096068 -3.6875 12.8125 C-6.14997759 10.78975055 -7.86255191 10.79304979 -11.0625 10.4375 C-15.4054218 10.88676777 -17.39423134 11.9787572 -20.6875 14.8125 C-22.8671684 18.9402645 -23.02565418 22.94560805 -23.1015625 27.51953125 C-23.12092865 28.24492599 -23.1402948 28.97032074 -23.1602478 29.71769714 C-23.21972108 32.02001422 -23.26629845 34.32238219 -23.3125 36.625 C-23.35070958 38.19207832 -23.38976303 39.75913631 -23.4296875 41.32617188 C-23.52539563 45.15478152 -23.60954448 48.98348942 -23.6875 52.8125 C-27.6475 52.8125 -31.6075 52.8125 -35.6875 52.8125 C-35.6875 35.6525 -35.6875 18.4925 -35.6875 0.8125 C-31.7275 0.8125 -27.7675 0.8125 -23.6875 0.8125 C-23.3575 1.4725 -23.0275 2.1325 -22.6875 2.8125 C-22.07003906 2.52375 -21.45257813 2.235 -20.81640625 1.9375 C-13.41069805 -1.30883784 -7.79189469 -2.50925422 0 0 Z " fill="#000000" transform="translate(435.6875,133.1875)"/>
<path d="M0 0 C3.63989277 2.41694669 6.68159275 5.26478832 9 9 C9 9.66 9 10.32 9 11 C7.03125 12.7265625 7.03125 12.7265625 4.5 14.625 C3.24703125 15.57246094 3.24703125 15.57246094 1.96875 16.5390625 C1.3190625 17.02117187 0.669375 17.50328125 0 18 C-0.721875 17.2575 -1.44375 16.515 -2.1875 15.75 C-7.77910571 10.2826522 -12.27465006 7.04623327 -20.25 6.625 C-26.37782416 6.80067118 -32.10336142 8.59627681 -36.859375 12.54296875 C-42.41677094 18.55431039 -44.64414262 25.27842916 -44.34375 33.4140625 C-43.51331593 39.66119155 -41.42534729 45.10451223 -36.75 49.4375 C-31.15052567 53.64306264 -25.31987548 55.63435692 -18.296875 55.34375 C-11.12086735 54.26978967 -6.3844247 51.051453 -1.99609375 45.390625 C-1.66738281 44.93171875 -1.33867187 44.4728125 -1 44 C2.92300272 45.82504909 5.73787272 48.18270826 9 51 C5.43658393 58.34954564 -1.36336258 63.62866397 -8.96875 66.33984375 C-19.137766 68.5544877 -30.86376557 68.31874681 -40 63 C-48.75011786 56.70495118 -54.07663341 49.34617568 -57 39 C-58.11664774 27.43101 -56.64626871 17.82934763 -49.9375 8.25 C-37.47794472 -6.67467159 -16.52333004 -9.46406697 0 0 Z " fill="#000000" transform="translate(299,119)"/>
<path d="M0 0 C0.886875 0.556875 1.77375 1.11375 2.6875 1.6875 C8.38291379 7.38291379 11.11211856 14.22484709 11.25 22.1875 C11.14488915 30.08132506 9.32427294 36.56124721 3.87890625 42.4296875 C-2.83621586 48.04191014 -10.60396805 50.38291101 -19.20703125 50.28125 C-26.80641617 49.51599725 -33.79045744 46.58165275 -39 41 C-43.88425947 33.69357371 -45.9496123 26.79069669 -45 18 C-43.23798076 10.44242348 -40.37744962 4.58926277 -34 0 C-23.06149284 -6.23151889 -10.79717311 -6.86868221 0 0 Z M-30.3125 12.5625 C-33.63027425 17.35484058 -33.64276558 22.35598993 -33 28 C-31.39711048 31.40546227 -31.39711048 31.40546227 -29 34 C-28.443125 34.7425 -27.88625 35.485 -27.3125 36.25 C-23.83634073 38.88060701 -20.31172642 39.64980902 -16 40 C-10.95097986 39.15849664 -7.62320804 37.62320804 -4 34 C-1.23118598 29.45123411 0.62859055 25.16540244 -0.4375 19.796875 C-2.1268134 13.99945856 -4.52090754 10.07280666 -9.85546875 6.89453125 C-17.92378574 3.52905841 -24.74121183 6.3889104 -30.3125 12.5625 Z " fill="#000000" transform="translate(554,137)"/>
<path d="M0 0 C3.96 0 7.92 0 12 0 C12.01458252 0.96824707 12.02916504 1.93649414 12.04418945 2.93408203 C12.10241567 6.54626324 12.17964536 10.15783683 12.26245117 13.76953125 C12.29558667 15.32900081 12.3236537 16.88858702 12.34643555 18.44824219 C12.38019281 20.69776852 12.43251504 22.94623687 12.48828125 25.1953125 C12.49467117 25.8861795 12.5010611 26.57704651 12.50764465 27.28884888 C12.64545478 31.88548792 13.62182432 35.07315041 16 39 C18.93435426 41.39095532 22.2517481 41.42638786 25.97265625 41.30859375 C29.4735718 40.77569909 31.40917311 39.34981974 34 37 C36.51708106 32.0773993 37.39162107 28.3504582 37.51171875 22.75390625 C37.52966995 22.09792953 37.54762115 21.44195282 37.56611633 20.76609802 C37.61972153 18.69829488 37.65395093 16.63071562 37.6875 14.5625 C37.72071743 13.14905769 37.75521111 11.73564477 37.79101562 10.32226562 C37.87541619 6.88172554 37.94246279 3.44110634 38 0 C41.96 0 45.92 0 50 0 C50 17.16 50 34.32 50 52 C46.04 52 42.08 52 38 52 C37.505 50.02 37.505 50.02 37 48 C35.906875 48.639375 34.81375 49.27875 33.6875 49.9375 C27.57404139 53.51329655 20.81237781 54.21651186 13.8984375 52.46875 C8.35295104 50.22124007 4.41879533 47.46045278 1.87109375 42.01171875 C-1.18287654 34.1093832 -0.42315316 25.70432021 -0.25 17.375 C-0.22989933 15.68621916 -0.21165488 13.99741515 -0.1953125 12.30859375 C-0.15161015 8.20514889 -0.08278264 4.10283489 0 0 Z " fill="#000000" transform="translate(341,134)"/>
<path d="M0 0 C3.63 0 7.26 0 11 0 C11.00364563 0.7553302 11.00729126 1.5106604 11.01104736 2.28887939 C11.04892923 9.41053567 11.10578301 16.53166894 11.18390274 23.65298843 C11.22339643 27.31408723 11.25557521 30.97494485 11.27099609 34.63623047 C11.28615087 38.17026922 11.32057361 41.70364501 11.36830902 45.23738861 C11.39034624 47.24028962 11.39247476 49.24337756 11.39434814 51.24639893 C11.41406677 52.46736267 11.4337854 53.68832642 11.45410156 54.94628906 C11.46298401 56.02106506 11.47186646 57.09584106 11.48101807 58.20318604 C12.12241928 61.65972231 13.25679581 62.86730048 16 65 C18.14703124 65.27076301 18.14703124 65.27076301 20.25 64.75 C21.4875 64.5025 22.725 64.255 24 64 C25.42258812 67.82320557 26.24042276 70.91281305 26 75 C21.18650855 77.56719544 16.31232045 77.54572794 11 77 C5.63212102 75.11130184 2.54008416 72.08016831 0 67 C-0.09175034 64.87583 -0.11750694 62.74870545 -0.11352539 60.62255859 C-0.11367142 59.96877731 -0.11381744 59.31499603 -0.1139679 58.6414032 C-0.11327036 56.47704773 -0.1054854 54.31277796 -0.09765625 52.1484375 C-0.09579151 50.64913988 -0.09436787 49.14984166 -0.09336853 47.65054321 C-0.08954779 43.70168378 -0.07972128 39.75286104 -0.06866455 35.80401611 C-0.05844091 31.77559913 -0.05386887 27.74717622 -0.04882812 23.71875 C-0.03809862 15.81248315 -0.0210275 7.90624614 0 0 Z " fill="#000000" transform="translate(316,111)"/>
<path d="M0 0 C3.96 0 7.92 0 12 0 C12 17.16 12 34.32 12 52 C8.04 52 4.08 52 0 52 C0 34.84 0 17.68 0 0 Z " fill="#000000" transform="translate(492,134)"/>
<path d="M0 0 C2 1.0625 2 1.0625 3 3 C3.50030235 6.93094707 3.5996142 9.1005787 1.375 12.4375 C-1.69817115 14.45932313 -3.38247881 14.52755517 -7 14 C-9.375 13 -9.375 13 -11 11 C-11.65964122 7.44238446 -11.63041883 4.26083766 -10 1 C-6.7413581 -0.62932095 -3.56102656 -0.52673518 0 0 Z " fill="#000000" transform="translate(502,112)"/>
</svg>
